<?xml version="1.0" standalone="no"?><!DOCTYPE svg PUBLIC "-//W3C//DTD SVG 1.1//EN" "http://www.w3.org/Graphics/SVG/1.1/DTD/svg11.dtd"><svg t="1648349871321" class="icon" viewBox="0 0 1024 1024" version="1.1" xmlns="http://www.w3.org/2000/svg" p-id="16590" xmlns:xlink="http://www.w3.org/1999/xlink" width="200" height="200"><defs><style type="text/css">@font-face { font-family: feedback-iconfont; src: url("//at.alicdn.com/t/font_1031158_u69w8yhxdu.woff2?t=1630033759944") format("woff2"), url("//at.alicdn.com/t/font_1031158_u69w8yhxdu.woff?t=1630033759944") format("woff"), url("//at.alicdn.com/t/font_1031158_u69w8yhxdu.ttf?t=1630033759944") format("truetype"); }
</style></defs><path d="M512 10.24c-258.56 0-468.992 210.432-468.992 468.992 0 163.328 82.944 312.32 221.696 398.336 5.632 3.584 11.264 5.12 17.408 5.12 10.752 0 21.504-5.632 27.648-15.36 9.728-15.36 4.608-35.328-10.752-45.056-119.296-74.24-190.976-202.752-190.976-343.04 0-222.72 181.248-403.456 403.456-403.456s403.456 181.248 403.456 403.456c0 124.928-56.32 240.64-154.624 317.952-14.336 11.264-16.896 31.744-5.632 46.08 11.264 14.336 31.744 16.896 46.08 5.632 114.176-89.6 179.712-224.256 179.712-369.152C980.992 220.672 770.56 10.24 512 10.24z" p-id="16591"></path><path d="M512 209.408c-138.24 0-250.88 112.64-250.88 250.88 0 87.552 44.544 166.912 118.784 212.992 5.632 3.584 11.264 5.12 17.408 5.12 10.752 0 21.504-5.632 27.648-15.36 9.728-15.36 4.608-35.328-10.752-45.056-54.784-34.304-87.552-93.184-87.552-157.696 0-102.4 82.944-185.344 185.344-185.344 102.4 0 185.344 82.944 185.344 185.344 0 57.344-26.112 110.592-71.168 145.92-14.336 11.264-16.896 31.744-5.632 46.08 11.264 14.336 31.744 16.896 46.08 5.632 60.928-48.128 96.256-119.808 96.256-197.632 0-138.24-112.64-250.88-250.88-250.88z" p-id="16592"></path><path d="M512 468.48c-17.92 0-32.768 14.848-32.768 32.768v479.744c0 17.92 14.848 32.768 32.768 32.768s32.768-14.848 32.768-32.768V501.248c0-18.432-14.848-32.768-32.768-32.768z" p-id="16593"></path></svg>