<?xml version="1.0" standalone="no"?><!DOCTYPE svg PUBLIC "-//W3C//DTD SVG 1.1//EN" "http://www.w3.org/Graphics/SVG/1.1/DTD/svg11.dtd"><svg t="1648358602960" class="icon" viewBox="0 0 1024 1024" version="1.1" xmlns="http://www.w3.org/2000/svg" p-id="1988" xmlns:xlink="http://www.w3.org/1999/xlink" width="200" height="200"><defs><style type="text/css">@font-face { font-family: feedback-iconfont; src: url("//at.alicdn.com/t/font_1031158_u69w8yhxdu.woff2?t=1630033759944") format("woff2"), url("//at.alicdn.com/t/font_1031158_u69w8yhxdu.woff?t=1630033759944") format("woff"), url("//at.alicdn.com/t/font_1031158_u69w8yhxdu.ttf?t=1630033759944") format("truetype"); }
</style></defs><path d="M908.032 1022.4H115.968a36.096 36.096 0 0 1-35.968-36.032c0-19.776 16.192-35.968 36.032-35.968h791.936c19.84 0 36.032 16.192 36.032 36.032 0 19.776-16.192 35.968-36.032 35.968zM205.888 518.4L512 824.384 817.984 518.4a34.816 34.816 0 0 0 0-50.368 34.816 34.816 0 0 0-50.368 0l-219.584 217.792V50.432A36.096 36.096 0 0 0 512 14.336a36.096 36.096 0 0 0-36.032 36.032v635.392L258.176 468.032a34.816 34.816 0 0 0-50.368 0 33.472 33.472 0 0 0-1.792 50.368z" p-id="1989"></path></svg>