<?xml version="1.0" standalone="no"?><!DOCTYPE svg PUBLIC "-//W3C//DTD SVG 1.1//EN" "http://www.w3.org/Graphics/SVG/1.1/DTD/svg11.dtd"><svg t="1648350702309" class="icon" viewBox="0 0 1024 1024" version="1.1" xmlns="http://www.w3.org/2000/svg" p-id="1985" xmlns:xlink="http://www.w3.org/1999/xlink" width="200" height="200"><defs><style type="text/css">@font-face { font-family: feedback-iconfont; src: url("//at.alicdn.com/t/font_1031158_u69w8yhxdu.woff2?t=1630033759944") format("woff2"), url("//at.alicdn.com/t/font_1031158_u69w8yhxdu.woff?t=1630033759944") format("woff"), url("//at.alicdn.com/t/font_1031158_u69w8yhxdu.ttf?t=1630033759944") format("truetype"); }
</style></defs><path d="M374.656 713.344a32 32 0 0 1 3.648 40.832l-3.648 4.48-128 128a32 32 0 0 1-40.832 3.648l-4.48-3.648-64-64a32 32 0 0 1 40.832-48.96l4.48 3.648 41.344 41.408 105.344-105.408a32 32 0 0 1 45.312 0zM864 768a32 32 0 1 1 0 64h-384a32 32 0 1 1 0-64h384zM374.656 457.344a32 32 0 0 1 3.648 40.832l-3.648 4.48-128 128a32 32 0 0 1-40.832 3.648l-4.48-3.648-64-64a32 32 0 0 1 40.832-48.96l4.48 3.648 41.344 41.408 105.344-105.408a32 32 0 0 1 45.312 0zM864 512a32 32 0 1 1 0 64h-384a32 32 0 0 1 0-64h384zM374.656 201.344a32 32 0 0 1 3.648 40.832l-3.648 4.48-128 128a32 32 0 0 1-40.832 3.648l-4.48-3.648-64-64a32 32 0 0 1 40.832-48.96l4.48 3.648 41.344 41.408 105.344-105.408a32 32 0 0 1 45.312 0zM864 256a32 32 0 1 1 0 64h-384a32 32 0 0 1 0-64h384z" p-id="1986"></path></svg>