<?xml version="1.0" standalone="no"?><!DOCTYPE svg PUBLIC "-//W3C//DTD SVG 1.1//EN" "http://www.w3.org/Graphics/SVG/1.1/DTD/svg11.dtd"><svg t="1648350320058" class="icon" viewBox="0 0 1024 1024" version="1.1" xmlns="http://www.w3.org/2000/svg" p-id="26071" xmlns:xlink="http://www.w3.org/1999/xlink" width="200" height="200"><defs><style type="text/css">@font-face { font-family: feedback-iconfont; src: url("//at.alicdn.com/t/font_1031158_u69w8yhxdu.woff2?t=1630033759944") format("woff2"), url("//at.alicdn.com/t/font_1031158_u69w8yhxdu.woff?t=1630033759944") format("woff"), url("//at.alicdn.com/t/font_1031158_u69w8yhxdu.ttf?t=1630033759944") format("truetype"); }
</style></defs><path d="M987.52 883.84c-18.176 0-36.416-18.176-36.416-36.416v-168.512c0-18.24 18.24-36.48 36.48-36.48 18.176 0 36.416 18.24 36.416 36.48v168.512c0 18.24-18.24 36.48-36.48 36.48z m-177.6 45.632c-18.24 0-36.48-18.24-36.48-36.48V592.32c0-18.176 18.24-36.416 36.48-36.416 18.176 0 36.416 18.24 36.416 36.48v300.608c0 18.24-13.632 36.48-36.48 36.48z m-200.448-246.016c-18.24-95.68-118.4-168.576-246.016-168.576-18.24 0-36.48 4.608-54.656 4.608-150.336 22.784-255.104 132.096-232.32 245.952 13.632 95.68 118.4 168.576 245.952 168.576 18.24 0 36.48-4.544 54.72-4.544 132.096-20.032 229.056-106.88 235.136-204.992h-2.816v-41.024z m0-141.44V123.136h3.904c1.408-14.08 10.56-25.472 26.944-32l255.36-73.088c19.968-4.096 36.416 5.056 44.864 26.24 4.096 19.84-4.992 36.352-26.176 44.8L682.368 155.52v568.96h-2.56c-8.576 135.168-131.2 253.568-293.568 277.952-27.328 0-45.568 4.48-68.352 4.48-163.968 0-291.52-95.616-314.304-227.712-27.328-154.88 104.768-300.672 291.52-328 22.784-4.544 41.024-4.544 68.352-4.544 101.248 0 188.608 36.48 246.016 95.424z" fill="#81FF57" p-id="26072"></path></svg>