<?xml version="1.0" standalone="no"?><!DOCTYPE svg PUBLIC "-//W3C//DTD SVG 1.1//EN" "http://www.w3.org/Graphics/SVG/1.1/DTD/svg11.dtd"><svg t="1648349789598" class="icon" viewBox="0 0 1024 1024" version="1.1" xmlns="http://www.w3.org/2000/svg" p-id="15630" xmlns:xlink="http://www.w3.org/1999/xlink" width="200" height="200"><defs><style type="text/css">@font-face { font-family: feedback-iconfont; src: url("//at.alicdn.com/t/font_1031158_u69w8yhxdu.woff2?t=1630033759944") format("woff2"), url("//at.alicdn.com/t/font_1031158_u69w8yhxdu.woff?t=1630033759944") format("woff"), url("//at.alicdn.com/t/font_1031158_u69w8yhxdu.ttf?t=1630033759944") format("truetype"); }
</style></defs><path d="M512 128a384 384 0 1 1 0 768 384 384 0 0 1 0-768z m0 64a320 320 0 1 0 0 640 320 320 0 0 0 0-640z" fill="#A1A7B3" p-id="15631"></path><path d="M621.397333 657.194667a32 32 0 1 1 38.314667 51.285333 245.461333 245.461333 0 0 1-147.328 48.853333 245.418667 245.418667 0 0 1-146.944-48.554666 32 32 0 0 1 38.229333-51.370667c31.146667 23.210667 68.949333 35.925333 108.714667 35.925333 39.936 0 77.781333-12.8 109.013333-36.138666z" fill="#A1A7B3" p-id="15632"></path></svg>