<?xml version="1.0" standalone="no"?><!DOCTYPE svg PUBLIC "-//W3C//DTD SVG 1.1//EN" "http://www.w3.org/Graphics/SVG/1.1/DTD/svg11.dtd"><svg t="1648350600343" class="icon" viewBox="0 0 1024 1024" version="1.1" xmlns="http://www.w3.org/2000/svg" p-id="28615" xmlns:xlink="http://www.w3.org/1999/xlink" width="200" height="200"><defs><style type="text/css">@font-face { font-family: feedback-iconfont; src: url("//at.alicdn.com/t/font_1031158_u69w8yhxdu.woff2?t=1630033759944") format("woff2"), url("//at.alicdn.com/t/font_1031158_u69w8yhxdu.woff?t=1630033759944") format("woff"), url("//at.alicdn.com/t/font_1031158_u69w8yhxdu.ttf?t=1630033759944") format("truetype"); }
</style></defs><path d="M323.028615 0.581976c-30.702002 0-61.405002 20.468001-66.518009 46.053003v793.145025L102.995607 681.151997C82.529602 655.566996 46.707606 655.566996 21.122604 670.92199c-25.586 15.348006-25.586 46.052004-5.117998 66.518009l260.974002 266.08601c10.230008 15.354994 25.584003 20.472992 46.050007 20.472993 5.117999 0 15.355992 0 20.468001-5.117999 25.585001-5.117999 40.938997-25.585001 40.938997-46.052004V46.634979c0-25.585001-25.584003-46.053002-61.406998-46.053003zM1008.715636 287.141978L747.747624 21.049978C732.395625 5.699975 706.807629 0.581976 681.223626 5.699975c-25.582007 5.117999-40.933007 20.468001-40.933008 40.934006v926.193022c0 25.585001 30.700005 46.052004 61.400011 46.052004 35.824991 0 61.406998-20.467003 61.406998-46.052004V184.795983l153.512004 158.629005c20.472992 25.589993 56.288001 25.589993 81.870008 10.235997 25.589993-15.349004 30.705995-46.053002 10.235997-66.519007z" p-id="28616"></path></svg>