<?xml version="1.0" standalone="no"?><!DOCTYPE svg PUBLIC "-//W3C//DTD SVG 1.1//EN" "http://www.w3.org/Graphics/SVG/1.1/DTD/svg11.dtd"><svg t="1648350049594" class="icon" viewBox="0 0 1024 1024" version="1.1" xmlns="http://www.w3.org/2000/svg" p-id="20600" xmlns:xlink="http://www.w3.org/1999/xlink" width="200" height="200"><defs><style type="text/css">@font-face { font-family: feedback-iconfont; src: url("//at.alicdn.com/t/font_1031158_u69w8yhxdu.woff2?t=1630033759944") format("woff2"), url("//at.alicdn.com/t/font_1031158_u69w8yhxdu.woff?t=1630033759944") format("woff"), url("//at.alicdn.com/t/font_1031158_u69w8yhxdu.ttf?t=1630033759944") format("truetype"); }
</style></defs><path d="M941.5 285.4c-11-6.1-24.7-4.6-34.2 3.7L700.1 470 540.2 160a29.99 29.99 0 0 0-28.2-16.2c-11.4-0.6-22.7 5.4-28.2 16.2L323.9 470 116.7 289.1c-9.5-8.3-23.1-9.8-34.2-3.7-11 6.1-17.1 18.4-15.2 30.8L146.2 833c1.4 26.3 23.3 47.2 49.9 47.2H827.9c26.6 0 48.5-20.9 49.9-47.2l78.9-516.8c1.9-12.4-4.2-24.7-15.2-30.8zM819.1 820.3H205l-66-432 174.3 152.1c6.9 6.1 16.3 8.6 25.3 6.9 9.1-1.7 16.8-7.5 21-15.7L512 236.1l152.3 295.4c4.2 8.2 12 14 21 15.7 9.1 1.7 18.4-0.8 25.4-6.9L885 388.2l-65.9 432.1z" p-id="20601"></path></svg>