<?xml version="1.0" standalone="no"?><!DOCTYPE svg PUBLIC "-//W3C//DTD SVG 1.1//EN" "http://www.w3.org/Graphics/SVG/1.1/DTD/svg11.dtd"><svg t="1648358972350" class="icon" viewBox="0 0 1024 1024" version="1.1" xmlns="http://www.w3.org/2000/svg" p-id="7093" xmlns:xlink="http://www.w3.org/1999/xlink" width="200" height="200"><defs><style type="text/css">@font-face { font-family: feedback-iconfont; src: url("//at.alicdn.com/t/font_1031158_u69w8yhxdu.woff2?t=1630033759944") format("woff2"), url("//at.alicdn.com/t/font_1031158_u69w8yhxdu.woff?t=1630033759944") format("woff"), url("//at.alicdn.com/t/font_1031158_u69w8yhxdu.ttf?t=1630033759944") format("truetype"); }
</style></defs><path d="M258.5 261.9h731.6c18.7 0 33.8-15.1 33.8-33.8s-15.1-33.8-33.8-33.8H258.5c-18.7 0-33.8 15.1-33.8 33.8s15.1 33.8 33.8 33.8zM60.7 167.3C27.2 167.3 0 194.5 0 228s27.2 60.7 60.7 60.7 60.7-27.2 60.7-60.7c0.1-33.5-27.1-60.7-60.7-60.7zM990.1 503.7H258.5c-18.7 0-33.8 15.1-33.8 33.8 0 18.7 15.1 33.8 33.8 33.8h731.6c18.7 0 33.8-15.1 33.8-33.8 0-18.7-15.1-33.8-33.8-33.8zM60.7 476.7C27.2 476.7 0 503.9 0 537.5c0 33.5 27.2 60.7 60.7 60.7s60.7-27.2 60.7-60.7c0.1-33.6-27.1-60.8-60.7-60.8zM990.1 813.1H258.5c-18.7 0-33.8 15.1-33.8 33.8s15.1 33.8 33.8 33.8h731.6c18.7 0 33.8-15.1 33.8-33.8s-15.1-33.8-33.8-33.8zM60.7 786.2C27.2 786.2 0 813.4 0 847c0 33.5 27.2 60.7 60.7 60.7s60.7-27.2 60.7-60.7c0.1-33.6-27.1-60.8-60.7-60.8z" p-id="7094"></path></svg>