<?xml version="1.0" standalone="no"?><!DOCTYPE svg PUBLIC "-//W3C//DTD SVG 1.1//EN" "http://www.w3.org/Graphics/SVG/1.1/DTD/svg11.dtd"><svg t="1648350187486" class="icon" viewBox="0 0 1024 1024" version="1.1" xmlns="http://www.w3.org/2000/svg" p-id="25111" xmlns:xlink="http://www.w3.org/1999/xlink" width="200" height="200"><defs><style type="text/css">@font-face { font-family: feedback-iconfont; src: url("//at.alicdn.com/t/font_1031158_u69w8yhxdu.woff2?t=1630033759944") format("woff2"), url("//at.alicdn.com/t/font_1031158_u69w8yhxdu.woff?t=1630033759944") format("woff"), url("//at.alicdn.com/t/font_1031158_u69w8yhxdu.ttf?t=1630033759944") format("truetype"); }
</style></defs><path d="M511.3217041 709.76783854c118.12038574 0 214.24460449-96.12421875 214.24460449-214.24460449V224.98006999C725.56630859 106.85968425 629.44208984 10.7354655 511.3217041 10.7354655S297.07709961 106.85968425 297.07709961 224.98006999v270.44626465c0 118.21728516 96.12421875 214.34150391 214.24460449 214.34150391zM381.28269043 224.98006999c0-71.70556641 58.33344727-130.13591309 130.13591309-130.13591309 71.70556641 0 130.13591309 58.33344727 130.13591308 130.13591309v270.44626465c0 71.70556641-58.33344727 130.13591309-130.13591308 130.13591308-71.70556641 0-130.13591309-58.33344727-130.13591309-130.13591308V224.98006999z m0 0" fill="#231815" p-id="25112"></path><path d="M553.47294922 861.7061198c182.84919434-20.93027344 325.38823242-176.64763184 325.38823242-365.02009278h-84.20559082c0 156.20185547-127.13203125 283.33388672-283.33388672 283.33388672S227.98781738 652.88788249 227.98781738 496.68602702H143.78222656c0 188.37246094 142.53903809 344.08981934 325.38823242 365.02009277V918.48917644H185.93347168v84.20559082h650.77646484V918.48917644H553.47294922v-56.78305665z m0-1e-8" fill="#231815" p-id="25113"></path></svg>