<?xml version="1.0" standalone="no"?><!DOCTYPE svg PUBLIC "-//W3C//DTD SVG 1.1//EN" "http://www.w3.org/Graphics/SVG/1.1/DTD/svg11.dtd"><svg t="1648349723029" class="icon" viewBox="0 0 1024 1024" version="1.1" xmlns="http://www.w3.org/2000/svg" p-id="14791" xmlns:xlink="http://www.w3.org/1999/xlink" width="200" height="200"><defs><style type="text/css">@font-face { font-family: feedback-iconfont; src: url("//at.alicdn.com/t/font_1031158_u69w8yhxdu.woff2?t=1630033759944") format("woff2"), url("//at.alicdn.com/t/font_1031158_u69w8yhxdu.woff?t=1630033759944") format("woff"), url("//at.alicdn.com/t/font_1031158_u69w8yhxdu.ttf?t=1630033759944") format("truetype"); }
</style></defs><path d="M438.8 367.7c-9.2-5.3-20.6-5.3-29.8 0-9.2 5.4-14.9 15.2-14.8 25.9v238.3c0 10.7 5.6 20.5 14.8 25.9 9.2 5.4 20.6 5.4 29.8 0l208.5-119.1c9.3-5.3 15.1-15.2 15.1-25.9s-5.8-20.6-15.1-25.9L438.8 367.7z m14.9 212.7V444.9l119.1 67.9-119.1 67.6zM840.9 66H185.6c-65.8 0-119.1 53.3-119.1 119.1v655.3c0 65.8 53.3 119.1 119.1 119.1h655.3c65.8 0 119.1-53.3 119.1-119.1V721.3H126v-417h834V185.1C960 119.3 906.7 66 840.9 66z m-89.4 714.8h148.9v59.6c0 32.9-26.7 59.6-59.6 59.6h-89.4V780.8z m-208.5 0h148.9V900H543V780.8z m-208.5 0h148.9V900H334.5V780.8z m-59.6 0V900h-89.4c-32.9 0-59.6-26.7-59.6-59.6v-59.6h149z m0-536.1H126v-59.6c0-32.9 26.7-59.6 59.6-59.6H275v119.2z m208.5 0H334.5V125.6h148.9v119.1z m208.5 0H543V125.6h148.9v119.1z m208.5 0H751.5V125.6h89.4c32.9 0 59.6 26.7 59.6 59.6v59.5z m29.8 81.2c-16.4 0-29.8 13.3-29.8 29.8v307.6c0 16.5 13.3 29.8 29.8 29.8s29.8-13.3 29.8-29.8V355.7c0-16.4-13.3-29.8-29.8-29.8z" p-id="14792"></path></svg>